Coordinates
version=1
nRows=21
nColumns=22
inDegrees=yes

Units are S.I. units (second, meters, Newtons, ...)
If the header above contains a line with 'inDegrees', this indicates whether rotational values are in degrees (yes) or radians (no).

endheader
time	pelvis_tilt	pelvis_list	pelvis_rotation	pelvis_tx	pelvis_ty	pelvis_tz	hip_flexion_r	hip_adduction_r	hip_rotation_r	knee_angle_r	ankle_angle_r	subtalar_angle_r	hip_flexion_l	hip_adduction_l	hip_rotation_l	knee_angle_l	ankle_angle_l	subtalar_angle_l	lumbar_extension	lumbar_bending	lumbar_rotation
      0.01000000	     -3.62033099	     -3.19716239	     -3.67832297	     -1.19008489	      0.95330296	      0.36466914	     11.39960195	      3.08487783	     -1.37598269	    -21.17952738	     13.02937724	     -0.27167411	     10.53362296	     -2.99682280	     -8.17875859	    -23.70346448	     13.86362073	     -7.11956278	     -4.45721330	      1.70901803	      1.25410031
      0.02000000	     -3.60258090	     -3.22201294	     -3.71295600	     -1.19017098	      0.95333546	      0.36441872	     11.38806670	      3.09979994	     -1.32769192	    -21.18154309	     13.01928969	     -0.21364175	     10.52514944	     -3.00756361	     -8.18592026	    -23.72633730	     13.85693743	     -7.17555791	     -4.50875763	      1.74188522	      1.24709953
      0.03000000	     -3.60738951	     -3.23048860	     -3.74285481	     -1.19021916	      0.95333837	      0.36409782	     11.39364766	      3.08716091	     -1.32820643	    -21.16995783	     13.01933716	     -0.21085239	     10.52827602	     -2.99364848	     -8.18763877	    -23.72599969	     13.85767267	     -7.17811329	     -4.52577563	      1.75949026	      1.23977694
      0.04000000	     -3.55461794	     -3.23878280	     -3.81989207	     -1.19023748	      0.95344249	      0.36385147	     11.32853337	      3.08742529	     -1.22717117	    -21.14429165	     12.99885543	     -0.10771965	     10.44723976	     -2.98907093	     -8.27381443	    -23.70374399	     13.86993288	     -7.26250520	     -4.60960885	      1.76429288	      1.26069194
      0.05000000	     -3.51851022	     -3.23717193	     -3.86788053	     -1.19027733	      0.95351541	      0.36352732	     11.29242740	      3.06736898	     -1.16802167	    -21.13762082	     12.99990250	     -0.05318081	     10.39191531	     -2.96383232	     -8.31829713	    -23.68168742	     13.85641547	     -7.29373278	     -4.67526957	      1.76500105	      1.25052363
      0.06000000	     -3.48885124	     -3.24083823	     -3.93420701	     -1.19030785	      0.95358181	      0.36327570	     11.26345043	      3.06096593	     -1.09619682	    -21.12965806	     12.99263973	     -0.02029289	     10.33276282	     -2.95010090	     -8.37509033	    -23.64839054	     13.86437447	     -7.31779698	     -4.72963383	      1.76229451	      1.25506853
      0.07000000	     -3.45293908	     -3.23833745	     -4.00502583	     -1.19032190	      0.95365996	      0.36303975	     11.22574803	      3.05008147	     -1.00693704	    -21.12028604	     12.98917005	      0.00554643	     10.26203791	     -2.93044693	     -8.44331564	    -23.60807055	     13.86162267	     -7.33868642	     -4.78656624	      1.75273738	      1.27023519
      0.08000000	     -3.41740319	     -3.23627400	     -4.07861249	     -1.19032447	      0.95373890	      0.36283372	     11.19064460	      3.04165517	     -0.91660637	    -21.11630459	     12.98344163	      0.02784027	     10.18655397	     -2.91181438	     -8.51052014	    -23.56065221	     13.86484589	     -7.36064839	     -4.83847310	      1.74197149	      1.29100410
      0.09000000	     -3.38508227	     -3.23170550	     -4.15215981	     -1.19031726	      0.95380981	      0.36264266	     11.16065135	      3.03147601	     -0.82317711	    -21.11596439	     12.97652134	      0.04956606	     10.11296362	     -2.89109399	     -8.57602573	    -23.51245634	     13.86622223	     -7.38021175	     -4.88012754	      1.73095549	      1.31985053
      0.10000000	     -3.35713669	     -3.22511652	     -4.22883497	     -1.19031793	      0.95387231	      0.36248682	     11.14005797	      3.02117701	     -0.73016297	    -21.12271598	     12.96815010	      0.07342171	     10.04176539	     -2.87080837	     -8.64344397	    -23.46039855	     13.86878901	     -7.39827718	     -4.91602867	      1.71464247	      1.35735328
      0.11000000	     -3.33580790	     -3.21658130	     -4.30673213	     -1.19031457	      0.95392394	      0.36236102	     11.13122883	      3.01059771	     -0.64196857	    -21.13930753	     12.95927727	      0.09864034	      9.97865994	     -2.85093706	     -8.70932725	    -23.41116863	     13.86932119	     -7.41249663	     -4.93680548	      1.69499501	      1.39658060
      0.12000000	     -3.32509666	     -3.20536279	     -4.38264468	     -1.19033541	      0.95395793	      0.36224957	     11.14072081	      2.99722204	     -0.56158884	    -21.16405343	     12.94905374	      0.12355717	      9.93032372	     -2.83098533	     -8.77451993	    -23.36498050	     13.87038080	     -7.42285731	     -4.94571295	      1.67274110	      1.43798529
      0.13000000	     -3.32634020	     -3.19307163	     -4.45614525	     -1.19039212	      0.95397305	      0.36215611	     11.17053019	      2.98375136	     -0.49359031	    -21.19790444	     12.93703782	      0.14620031	      9.89856625	     -2.81245606	     -8.83841860	    -23.31848986	     13.87108203	     -7.42943425	     -4.94461795	      1.64800022	      1.47479595
      0.14000000	     -3.33657370	     -3.17502547	     -4.53214429	     -1.19044529	      0.95396985	      0.36208006	     11.21495496	      2.96487795	     -0.43172471	    -21.23990209	     12.92569037	      0.17100835	      9.88065608	     -2.79190489	     -8.91135751	    -23.28184631	     13.86777781	     -7.43441301	     -4.92566178	      1.61637648	      1.51850744
      0.15000000	     -3.35735015	     -3.15850061	     -4.60071239	     -1.19052644	      0.95395030	      0.36200245	     11.27526026	      2.94631196	     -0.38988121	    -21.28645617	     12.91505739	      0.19552519	      9.87991725	     -2.77426199	     -8.97986398	    -23.24895898	     13.86267063	     -7.43868884	     -4.89791481	      1.58763980	      1.54924591
      0.16000000	     -3.38573550	     -3.14191060	     -4.66189818	     -1.19061446	      0.95391691	      0.36192839	     11.34571856	      2.92712826	     -0.36341444	    -21.33581573	     12.90438194	      0.22047820	      9.89265111	     -2.75849592	     -9.04543412	    -23.22203798	     13.85608879	     -7.44376348	     -4.86017733	      1.55788606	      1.56971187
      0.17000000	     -3.41701237	     -3.12589987	     -4.71254161	     -1.19069957	      0.95387744	      0.36184412	     11.41827121	      2.90740735	     -0.34869244	    -21.38439142	     12.89455819	      0.24486344	      9.91211285	     -2.74314849	     -9.10594554	    -23.19793334	     13.84904009	     -7.45019437	     -4.81754496	      1.52968734	      1.57655366
      0.18000000	     -3.44546177	     -3.11059495	     -4.75118006	     -1.19076385	      0.95384033	      0.36174036	     11.48275799	      2.88715397	     -0.33720592	    -21.42810136	     12.88765213	      0.26724631	      9.92991124	     -2.72647026	     -9.15850835	    -23.17461938	     13.84236231	     -7.45781570	     -4.77479406	      1.50444677	      1.56746394
      0.19000000	     -3.45153414	     -3.11414518	     -4.76772434	     -1.19080012	      0.95384001	      0.36160315	     11.50722051	      2.88443831	     -0.32825644	    -21.45133594	     12.88480282	      0.27221145	      9.92189603	     -2.72257588	     -9.18097924	    -23.14758814	     13.84204995	     -7.45984791	     -4.75900187	      1.50390590	      1.52994804
      0.20000000	     -3.45973195	     -3.10639298	     -4.78568653	     -1.19080424	      0.95383204	      0.36145934	     11.53287959	      2.86929290	     -0.31352911	    -21.47477586	     12.87787030	      0.27942305	      9.91649735	     -2.70711828	     -9.21337383	    -23.12373265	     13.84284143	     -7.46429678	     -4.73500192	      1.49246179	      1.49083810
      0.21000000	     -3.46454210	     -3.09718663	     -4.79922146	     -1.19078217	      0.95382227	      0.36130440	     11.55047016	      2.85284622	     -0.29026526	    -21.49506012	     12.87664876	      0.28606605	      9.91112825	     -2.68791968	     -9.23582178	    -23.10845128	     13.84217792	     -7.46945263	     -4.71141874	      1.48206554	      1.45796606
